<svg xmlns="http://www.w3.org/2000/svg" xmlns:xlink="http://www.w3.org/1999/xlink" xmlns:svgjs="http://svgjs.dev/svgjs" version="1.1" viewBox="0.64 132.94 997.51 357.63"><g transform="matrix(1,0,0,1,-0.6060606060606233,0.2522267206477409)"><svg xmlns="http://www.w3.org/2000/svg" xmlns:xlink="http://www.w3.org/1999/xlink" viewBox="0 0 396 247" data-background-color="#ffffff" preserveAspectRatio="xMidYMid meet" height="623" width="1000"><g id="tight-bounds" transform="matrix(1,0,0,1,0.2400000000000091,-0.09999999999999432)"><svg viewBox="0 0 395.52 247.2" height="247.2" width="395.52"><g><svg/></g><g><svg viewBox="0 0 395.52 247.2" height="247.2" width="395.52"><g><g><path xmlns="http://www.w3.org/2000/svg" d="M51.867 54.308c2.003 1.068 3.004 2.47 3.004 4.206 2.537-0.401 4.78-0.668 6.729-0.801 1.923-0.134 4.085-0.2 6.489-0.2 9.613 0 17.73 2.336 24.352 7.009 6.595 4.673 11.535 10.814 14.819 18.424 2.605 6.085 4.168 12.554 4.691 19.408l-24.874 0c-0.807-6.1-2.731-11.14-5.771-15.122-4.139-5.394-10.547-8.091-19.225-8.091-3.738 0-7.143 0.267-10.214 0.801-1.175 5.092-2.989 12.563-5.441 22.412h-25.855l4.461-17.205c-7.61 2.27-14.019 5.207-19.226 8.812-1.602-1.602-2.804-3.605-3.604-6.008-0.801-2.403-1.202-4.873-1.202-7.41 0-2.937 1.202-5.541 3.605-7.81 6.275-4.005 14.953-7.41 26.034-10.214 2.537-6.542 6.675-9.813 12.417-9.813 3.872 0 6.809 0.534 8.811 1.602zM99.931 154.921c-6.809 12.229-15.781 21.682-26.916 28.358-11.161 6.675-23.685 10.013-37.569 10.013-3.872 0-8.611-0.467-14.219-1.402-2.136-0.401-4.633-1.842-7.49-4.325-2.884-2.457-5.327-5.287-7.33-8.492-2.003-3.204-3.004-6.075-3.004-8.611 0-1.469 0.2-2.87 0.601-4.206l5.551-21.41 26.121 0c-3.567 14.041-5.78 22.78-6.639 26.217 3.204 0.801 6.675 1.202 10.414 1.201 9.346 0 17.356-2.577 24.032-7.73 6.675-5.127 11.922-11.629 15.74-19.506 0.029-0.061 0.058-0.121 0.088-0.182l25.431 0c-1.408 3.492-3.012 6.85-4.811 10.075zM171.625 54.308c2.003 1.068 3.004 2.47 3.004 4.206 2.537-0.401 4.78-0.668 6.729-0.801 1.923-0.134 4.085-0.2 6.489-0.2 9.613 0 17.73 2.336 24.352 7.009 6.595 4.673 11.535 10.814 14.82 18.424 2.605 6.085 4.168 12.554 4.69 19.408l-24.874 0c-0.807-6.1-2.731-11.14-5.771-15.122-4.139-5.394-10.547-8.091-19.225-8.091-3.738 0-7.143 0.267-10.214 0.801-1.175 5.092-2.989 12.563-5.44 22.412l-25.855 0 4.46-17.205c-7.61 2.27-14.019 5.207-19.225 8.812-1.602-1.602-2.804-3.605-3.605-6.008-0.801-2.403-1.202-4.873-1.202-7.41 0-2.937 1.202-5.541 3.605-7.81 6.275-4.005 14.953-7.41 26.034-10.214 2.537-6.542 6.675-9.813 12.417-9.813 3.872 0 6.809 0.534 8.811 1.602zM219.689 154.921c-6.809 12.229-15.781 21.682-26.916 28.358-11.161 6.675-23.685 10.013-37.569 10.013-3.872 0-8.611-0.467-14.219-1.402-2.136-0.401-4.633-1.842-7.49-4.325-2.884-2.457-5.327-5.287-7.33-8.492-2.003-3.204-3.004-6.075-3.004-8.611 0-1.469 0.2-2.87 0.601-4.206l5.551-21.41 26.121 0c-3.567 14.041-5.78 22.78-6.639 26.217 3.204 0.801 6.675 1.202 10.414 1.201 9.346 0 17.356-2.577 24.032-7.73 6.675-5.127 11.922-11.629 15.741-19.506 0.029-0.061 0.058-0.121 0.087-0.182l25.431 0c-1.408 3.492-3.012 6.85-4.811 10.075zM391.436 58.594c1.522 0.614 2.55 1.522 3.084 2.724-2.568 9.905-5.864 23.583-9.887 41.036l-40.995 0c9.36-15.091 16.975-27.301 22.845-36.63 1.335-3.338 2.844-5.514 4.526-6.529 1.656-0.988 3.591-1.682 5.808-2.083 2.19-0.401 3.818-0.668 4.886-0.801 4.94 0.935 8.184 1.696 9.733 2.283zM374.293 147.231c-2.937 13.618-5.674 25.701-8.211 36.248-1.869 7.343-4.806 11.015-8.811 11.015-12.283 0-18.424-2.87-18.425-8.612 0 2.169 3.17-11.51 9.509-41.036l26.497 0c-0.203 0.868-0.389 1.663-0.559 2.385zM313.012 185.081c-2.136 2.67-5.274 4.005-9.412 4.006-3.471 0-6.702-0.868-9.693-2.604-3.017-1.736-4.326-3.471-3.925-5.207l-6.203-36.43 20.817 0 2.609 16.203c2.599-4.17 5.958-9.571 10.077-16.203l21.726 0zM262.546 182.878c-0.935 3.872-2.363 6.475-4.286 7.811-1.949 1.335-5.594 2.003-10.934 2.002-4.139 0-7.169-0.694-9.093-2.082-1.949-1.415-2.924-3.792-2.923-7.13 0-1.469 0.2-2.87 0.6-4.205l8.719-34.428 27.338 0zM263.347 70.93c1.469-5.874 3.044-9.786 4.726-11.735 1.656-1.923 4.686-2.884 9.092-2.884 3.605 0 6.809 0.401 9.613 1.202 2.804 0.801 4.272 2.003 4.405 3.604v0.401l6.574 40.836-42.368 0z" fill="#e8772e" fill-rule="nonzero" stroke="none" stroke-width="1" stroke-linecap="butt" stroke-linejoin="miter" stroke-miterlimit="10" stroke-dasharray="" stroke-dashoffset="0" font-family="none" font-weight="none" font-size="none" text-anchor="none" style="mix-blend-mode: normal" data-fill-palette-color="tertiary"/></g></g><g transform="matrix(1,0,0,1,0,107.15367388639149)"><svg viewBox="0 0 395.52 32.892652227217" height="32.892652227217" width="395.52"><g><svg viewBox="0 0 395.52 32.892652227217" height="32.892652227217" width="395.52"><g><svg viewBox="0 0 395.52 32.892652227217" height="32.892652227217" width="395.52"><g><svg viewBox="0 0 395.52 32.892652227217" height="32.892652227217" width="395.52"><g><svg viewBox="0 0 395.52 32.892652227217" height="32.892652227217" width="395.52"><g><svg viewBox="0 0 395.52 32.892652227217" height="32.892652227217" width="395.52"><g transform="matrix(1,0,0,1,0,0)"><svg width="395.52" viewBox="2 -38.75 489.3500061035156 40.70000076293945" height="32.892652227217" data-palette-color="#e8772e"><path d="M12.5-34.3Q13.95-34.3 14.7-33.9 15.45-33.5 15.45-32.85L15.45-32.85Q16.4-33 17.13-33.05 17.85-33.1 18.75-33.1L18.75-33.1Q22.35-33.1 24.83-31.35 27.3-29.6 28.53-26.75 29.75-23.9 29.75-20.6L29.75-20.6Q29.75-19.75 29.7-19.35L29.7-19.35Q29.25-13.35 26.7-8.78 24.15-4.2 19.98-1.7 15.8 0.8 10.6 0.8L10.6 0.8Q9.15 0.8 7.05 0.45L7.05 0.45Q6.25 0.3 5.18-0.63 4.1-1.55 3.35-2.75 2.6-3.95 2.6-4.9L2.6-4.9Q2.6-5.45 2.75-5.95L2.75-5.95 8-26.2Q5.15-25.35 3.2-24L3.2-24Q2.6-24.6 2.3-25.5 2-26.4 2-27.35L2-27.35Q2-28.45 2.9-29.3L2.9-29.3Q5.25-30.8 9.4-31.85L9.4-31.85Q10.35-34.3 12.5-34.3L12.5-34.3ZM9-4.75Q10.2-4.45 11.6-4.45L11.6-4.45Q15.1-4.45 17.6-6.38 20.1-8.3 21.53-11.25 22.95-14.2 23.4-17.35L23.4-17.35Q23.6-18.6 23.6-20.15L23.6-20.15Q23.6-23.65 22.05-25.68 20.5-27.7 17.25-27.7L17.25-27.7Q15.85-27.7 14.7-27.5L14.7-27.5Q13.8-23.6 10.9-12.25L10.9-12.25Q9.35-6.15 9-4.75L9-4.75ZM50-2.6Q50.1-1.3 50.35-0.25L50.35-0.25Q50.25 0.05 49.47 0.35 48.7 0.65 48.15 0.65L48.15 0.65Q46.35 0.65 45.57 0.13 44.8-0.4 44.8-1.45L44.8-1.45Q44.8-2.45 45-3.45L45-3.45Q43.9-1.95 41.77-0.98 39.65 0 38.35 0L38.35 0Q35 0 32.77-1.95 30.55-3.9 30.55-8.2L30.55-8.2Q30.55-12.25 32.47-15.83 34.4-19.4 37.8-21.58 41.2-23.75 45.35-23.75L45.35-23.75Q46.15-23.75 47.45-23.33 48.75-22.9 50.07-21.88 51.4-20.85 52.3-19.25L52.3-19.25Q52.7-19.25 53.25-18.85 53.8-18.45 53.8-18.05L53.8-18.05Q53.8-17.6 53.65-17.15L53.65-17.15 50-2.6ZM47.75-16.6Q47.45-17.7 46.57-18.45 45.7-19.2 45-19.2L45-19.2Q42.7-19.2 40.67-17.57 38.65-15.95 37.4-13.55 36.15-11.15 36.15-9L36.15-9Q36.15-6.9 36.65-5.55 37.15-4.2 38.6-4.2L38.6-4.2Q39.85-4.2 41.47-4.95 43.1-5.7 44.37-6.98 45.65-8.25 46.05-9.65L46.05-9.65 47.75-16.6ZM59.15-22.85Q59-23 59-23.2L59-23.2Q59-23.7 60.1-24.03 61.2-24.35 63.15-24.35L63.15-24.35Q64.95-24.35 65.8-23.43 66.65-22.5 66.8-21.2L66.8-21.2 65.9-17.95Q66.95-19.4 68.84-20.73 70.75-22.05 72.7-22.85 74.65-23.65 75.9-23.65L75.9-23.65Q78.55-23.65 79.75-22.68 80.95-21.7 80.95-19.6L80.95-19.6Q78-11.9 77.05-3L77.05-3 77.75-0.55Q77.15 0.6 76.07 1.28 75 1.95 72.95 1.95L72.95 1.95Q71.75 1.95 71.2 1.15 70.65 0.35 70.65-0.85L70.65-0.85Q70.65-4.2 71.62-8.22 72.59-12.25 73.9-16.45L73.9-16.45Q74.4-18.05 74.4-18.1L74.4-18.1Q74.4-18.8 73.59-18.8L73.59-18.8Q72.5-18.8 70.27-17.25 68.05-15.7 65.7-12.03 63.35-8.35 61.9-2.4L61.9-2.4Q61.8-2.1 61.65-1.3 61.5-0.5 60.85-0.18 60.2 0.15 58.75 0.15L58.75 0.15Q57.1 0.15 56.32-0.2 55.55-0.55 55.55-1.7L55.55-1.7Q55.7-2.4 56-3.4L56-3.4Q58.9-15.05 60.45-21.35L60.45-21.35 59.15-22.85ZM88.69-29.7Q88.69-31.25 89.67-32.45 90.64-33.65 92.39-33.65L92.39-33.65Q94.24-33.65 95.62-32.5 96.99-31.35 96.99-29.9L96.99-29.9Q96.99-28.45 95.59-27.4 94.19-26.35 92.34-26.35L92.34-26.35Q90.54-26.35 89.62-27.28 88.69-28.2 88.69-29.7L88.69-29.7ZM93.94-20.85Q91.29-10.05 89.89-4.6L89.89-4.6Q89.69-3.8 89.69-2.85L89.69-2.85 89.74-1.45Q89.74-0.6 89.22-0.25 88.69 0.1 86.99 0.15L86.99 0.15Q85.34 0.15 84.49-0.2 83.64-0.55 83.64-1.7L83.64-1.7Q83.64-2.25 84.92-7.55 86.19-12.85 88.39-21.35L88.39-21.35 87.24-22.85Q87.09-23 87.09-23.2L87.09-23.2Q87.09-23.7 88.19-24.03 89.29-24.35 91.24-24.35L91.24-24.35Q92.94-24.35 93.42-23.38 93.89-22.4 93.94-20.85L93.94-20.85ZM105.84 1.05Q100.94 1.05 98.69-0.9 96.44-2.85 96.44-6.1L96.44-6.1Q96.44-10.85 98.82-14.9 101.19-18.95 105.17-21.33 109.14-23.7 113.74-23.7L113.74-23.7Q116.54-23.7 118.44-22.13 120.34-20.55 120.34-17.5L120.34-17.5Q120.34-15.75 119.22-14.63 118.09-13.5 115.99-12.63 113.89-11.75 109.19-10.15L109.19-10.15Q104.94-8.75 102.29-7.8L102.29-7.8Q102.09-7.05 102.09-6.25L102.09-6.25Q102.09-4.85 103.27-4.1 104.44-3.35 106.59-3.35L106.59-3.35Q107.94-3.35 109.69-3.9 111.44-4.45 111.89-5.3L111.89-5.3Q113.59-8.4 114.99-8.4L114.99-8.4Q117.04-8.4 117.77-7.63 118.49-6.85 118.54-5.9L118.54-5.9Q117.94-4.3 116.19-2.68 114.44-1.05 111.74 0 109.04 1.05 105.84 1.05L105.84 1.05ZM103.69-12.4Q108.64-14 111.84-15.38 115.04-16.75 115.04-18.1L115.04-18.1Q115.04-18.7 114.39-19.07 113.74-19.45 112.99-19.45L112.99-19.45Q111.49-19.45 109.57-18.3 107.64-17.15 105.99-15.5 104.34-13.85 103.69-12.4L103.69-12.4ZM136.59-35.85L134.49-27.2Q128.84-3.45 127.84-0.05L127.84-0.05Q127.74 0.25 126.81 0.73 125.89 1.2 125.54 1.2L125.54 1.2Q124.14 1.2 122.84 0.5 121.54-0.2 121.44-1.75L121.44-1.75Q121.49-1.85 121.94-2.8 122.39-3.75 122.84-5.5L122.84-5.5Q123.99-9.8 125.46-15.7 126.94-21.6 127.44-23.6L127.44-23.6 129.79-33.15Q129.74-33.55 129.74-37.3L129.74-37.3Q129.89-37.95 130.86-38.35 131.84-38.75 132.64-38.75L132.64-38.75Q133.89-38.75 135.21-37.9 136.54-37.05 136.59-35.85L136.59-35.85ZM161.18-34.3Q162.63-34.3 163.38-33.9 164.13-33.5 164.13-32.85L164.13-32.85Q165.08-33 165.81-33.05 166.53-33.1 167.43-33.1L167.43-33.1Q171.03-33.1 173.51-31.35 175.98-29.6 177.21-26.75 178.43-23.9 178.43-20.6L178.43-20.6Q178.43-19.75 178.38-19.35L178.38-19.35Q177.93-13.35 175.38-8.78 172.83-4.2 168.66-1.7 164.48 0.8 159.28 0.8L159.28 0.8Q157.83 0.8 155.73 0.45L155.73 0.45Q154.93 0.3 153.86-0.63 152.78-1.55 152.03-2.75 151.28-3.95 151.28-4.9L151.28-4.9Q151.28-5.45 151.43-5.95L151.43-5.95 156.68-26.2Q153.83-25.35 151.88-24L151.88-24Q151.28-24.6 150.98-25.5 150.68-26.4 150.68-27.35L150.68-27.35Q150.68-28.45 151.58-29.3L151.58-29.3Q153.93-30.8 158.08-31.85L158.08-31.85Q159.03-34.3 161.18-34.3L161.18-34.3ZM157.68-4.75Q158.88-4.45 160.28-4.45L160.28-4.45Q163.78-4.45 166.28-6.38 168.78-8.3 170.21-11.25 171.63-14.2 172.08-17.35L172.08-17.35Q172.28-18.6 172.28-20.15L172.28-20.15Q172.28-23.65 170.73-25.68 169.18-27.7 165.93-27.7L165.93-27.7Q164.53-27.7 163.38-27.5L163.38-27.5Q162.48-23.6 159.58-12.25L159.58-12.25Q158.03-6.15 157.68-4.75L157.68-4.75ZM189.18 1.05Q184.78 1.05 182.33-1.95 179.88-4.95 179.88-9.6L179.88-9.6Q179.88-13.5 181.76-16.95 183.63-20.4 186.88-22.5 190.13-24.6 194.03-24.6L194.03-24.6Q197.88-24.6 200.36-22.08 202.83-19.55 202.83-14.65L202.83-14.65Q202.83-11.2 200.93-7.5 199.03-3.8 195.86-1.38 192.68 1.05 189.18 1.05L189.18 1.05ZM189.93-2.95Q191.53-2.95 193.16-4.95 194.78-6.95 195.83-10 196.88-13.05 196.88-15.95L196.88-15.95Q196.88-20.4 193.18-20.4L193.18-20.4Q191.13-20.4 189.43-18.45 187.73-16.5 186.73-13.63 185.73-10.75 185.73-8.25L185.73-8.25Q185.73-6.8 186.38-5.58 187.03-4.35 188.01-3.65 188.98-2.95 189.93-2.95L189.93-2.95ZM214.08 1.05Q209.18 1.05 206.93-0.9 204.68-2.85 204.68-6.1L204.68-6.1Q204.68-10.85 207.05-14.9 209.43-18.95 213.4-21.33 217.38-23.7 221.98-23.7L221.98-23.7Q224.78-23.7 226.68-22.13 228.58-20.55 228.58-17.5L228.58-17.5Q228.58-15.75 227.45-14.63 226.33-13.5 224.23-12.63 222.13-11.75 217.43-10.15L217.43-10.15Q213.18-8.75 210.53-7.8L210.53-7.8Q210.33-7.05 210.33-6.25L210.33-6.25Q210.33-4.85 211.5-4.1 212.68-3.35 214.83-3.35L214.83-3.35Q216.18-3.35 217.93-3.9 219.68-4.45 220.13-5.3L220.13-5.3Q221.83-8.4 223.23-8.4L223.23-8.4Q225.28-8.4 226-7.63 226.73-6.85 226.78-5.9L226.78-5.9Q226.18-4.3 224.43-2.68 222.68-1.05 219.98 0 217.28 1.05 214.08 1.05L214.08 1.05ZM211.93-12.4Q216.88-14 220.08-15.38 223.28-16.75 223.28-18.1L223.28-18.1Q223.28-18.7 222.63-19.07 221.98-19.45 221.23-19.45L221.23-19.45Q219.73-19.45 217.8-18.3 215.88-17.15 214.23-15.5 212.58-13.85 211.93-12.4L211.93-12.4ZM247.18-19.35Q246.58-19.65 245.68-19.65L245.68-19.65Q243.43-19.65 241.18-18.75 238.93-17.85 238.93-16.45L238.93-16.45Q238.93-15.45 239.83-14.85 240.73-14.25 242.68-13.5L242.68-13.5Q244.78-12.65 246.08-11.9 247.38-11.15 248.35-9.73 249.33-8.3 249.33-6.1L249.33-6.1Q249.33-2.5 246.35-0.58 243.38 1.35 238.38 1.35L238.38 1.35Q235.93 1.35 233.83 0.6 231.73-0.15 230.5-1.33 229.28-2.5 229.18-3.65L229.18-3.65Q229.18-4.85 230.23-5.63 231.28-6.4 233.18-6.65L233.18-6.65Q233.23-5.65 234.23-4.78 235.23-3.9 236.6-3.38 237.98-2.85 238.98-2.85L238.98-2.85Q240.68-2.85 242.08-3.78 243.48-4.7 243.48-5.95L243.48-5.95Q243.48-8.25 239.03-9.6L239.03-9.6Q236.18-10.45 234.65-12.3 233.13-14.15 233.13-16.2L233.13-16.2Q233.13-20.25 236.8-22.03 240.48-23.8 246.18-23.8L246.18-23.8Q249.38-23.8 251.13-23.05 252.88-22.3 252.88-20.45L252.88-20.45Q252.88-19.2 251.95-18.25 251.03-17.3 249.33-17.3L249.33-17.3Q247.83-17.3 247.4-17.53 246.98-17.75 246.93-18.3L246.93-18.3Q246.93-18.8 247.18-19.35L247.18-19.35ZM302.92-33.4Q304.77-33.05 305.35-32.83 305.92-32.6 306.12-32.15L306.12-32.15Q305.07-28.1 303.37-20.68 301.67-13.25 301.07-10.7L301.07-10.7Q299.97-5.6 299.02-1.65L299.02-1.65Q298.32 1.1 296.82 1.1L296.82 1.1Q292.22 1.1 292.22-1.05L292.22-1.05Q292.22-0.2 294.82-12.35L294.82-12.35 295.72-16.65 285.77-1.25Q284.97-0.25 283.42-0.25L283.42-0.25Q282.12-0.25 281-0.9 279.87-1.55 280.02-2.2L280.02-2.2 277.27-18.35 273.17-1.8Q272.82-0.35 272.1 0.15 271.37 0.65 269.37 0.65L269.37 0.65Q267.82 0.65 267.1 0.13 266.37-0.4 266.37-1.65L266.37-1.65Q266.37-2.2 266.52-2.7L266.52-2.7 273.37-29.75Q273.92-31.95 274.55-32.68 275.17-33.4 276.82-33.4L276.82-33.4Q278.17-33.4 279.22-33.1 280.27-32.8 280.32-32.2L280.32-32.2 280.32-32.1 284.32-7.25Q286.47-10.7 291.4-18.65 296.32-26.6 299.12-31.05L299.12-31.05Q299.62-32.3 300.25-32.68 300.87-33.05 301.69-33.2 302.52-33.35 302.92-33.4L302.92-33.4ZM292.22-1.05L292.22-1.05ZM316.57 1.05Q311.67 1.05 309.42-0.9 307.17-2.85 307.17-6.1L307.17-6.1Q307.17-10.85 309.54-14.9 311.92-18.95 315.89-21.33 319.87-23.7 324.47-23.7L324.47-23.7Q327.27-23.7 329.17-22.13 331.07-20.55 331.07-17.5L331.07-17.5Q331.07-15.75 329.94-14.63 328.82-13.5 326.72-12.63 324.62-11.75 319.92-10.15L319.92-10.15Q315.67-8.75 313.02-7.8L313.02-7.8Q312.82-7.05 312.82-6.25L312.82-6.25Q312.82-4.85 313.99-4.1 315.17-3.35 317.32-3.35L317.32-3.35Q318.67-3.35 320.42-3.9 322.17-4.45 322.62-5.3L322.62-5.3Q324.32-8.4 325.72-8.4L325.72-8.4Q327.77-8.4 328.49-7.63 329.22-6.85 329.27-5.9L329.27-5.9Q328.67-4.3 326.92-2.68 325.17-1.05 322.47 0 319.77 1.05 316.57 1.05L316.57 1.05ZM314.42-12.4Q319.37-14 322.57-15.38 325.77-16.75 325.77-18.1L325.77-18.1Q325.77-18.7 325.12-19.07 324.47-19.45 323.72-19.45L323.72-19.45Q322.22-19.45 320.29-18.3 318.37-17.15 316.72-15.5 315.07-13.85 314.42-12.4L314.42-12.4ZM355.27-37.05Q355.47-37.8 356.44-38.27 357.42-38.75 358.52-38.75L358.52-38.75Q359.42-38.75 360.47-38.35 361.52-37.95 361.52-37.2L361.52-37.2 358.37-24.9Q354.22-8.75 353.52-5.2L353.52-5.2Q353.22-3.7 353.22-2.9L353.22-2.9Q353.22-1.55 353.52-0.25L353.52-0.25Q353.42 0.05 352.74 0.35 352.06 0.65 351.52 0.65L351.52 0.65Q350.52 0.65 349.31 0.4 348.12 0.15 347.81-0.15L347.81-0.15Q347.37-0.55 347.37-1.75L347.37-1.75Q347.37-2.65 347.56-3.45L347.56-3.45Q346.52-1.95 344.39-0.98 342.27 0 340.97 0L340.97 0Q333.31 0 333.31-8.25L333.31-8.25Q333.31-11.85 334.94-15.45 336.56-19.05 339.59-21.4 342.62-23.75 346.62-23.75L346.62-23.75Q347.72-23.75 349.06-22.88 350.42-22 351.27-20.9L351.27-20.9Q352.37-25.55 353.22-28.65L353.22-28.65Q353.62-30.3 354.14-32.43 354.67-34.55 355.27-37.05L355.27-37.05ZM350.17-16.25Q349.87-17.35 348.74-18.28 347.62-19.2 346.92-19.2L346.92-19.2Q344.62-19.2 342.62-17.7 340.62-16.2 339.44-13.8 338.27-11.4 338.27-8.85L338.27-8.85Q338.27-6.95 338.97-5.45 339.67-3.95 341.12-3.95L341.12-3.95Q342.37-3.95 344.04-4.78 345.72-5.6 347.02-6.93 348.31-8.25 348.62-9.65L348.62-9.65 350.17-16.25ZM365.26-29.7Q365.26-31.25 366.24-32.45 367.21-33.65 368.96-33.65L368.96-33.65Q370.81-33.65 372.19-32.5 373.56-31.35 373.56-29.9L373.56-29.9Q373.56-28.45 372.16-27.4 370.76-26.35 368.91-26.35L368.91-26.35Q367.11-26.35 366.19-27.28 365.26-28.2 365.26-29.7L365.26-29.7ZM370.51-20.85Q367.86-10.05 366.46-4.6L366.46-4.6Q366.26-3.8 366.26-2.85L366.26-2.85 366.31-1.45Q366.31-0.6 365.79-0.25 365.26 0.1 363.56 0.15L363.56 0.15Q361.91 0.15 361.06-0.2 360.21-0.55 360.21-1.7L360.21-1.7Q360.21-2.25 361.49-7.55 362.76-12.85 364.96-21.35L364.96-21.35 363.81-22.85Q363.66-23 363.66-23.2L363.66-23.2Q363.66-23.7 364.76-24.03 365.86-24.35 367.81-24.35L367.81-24.35Q369.51-24.35 369.99-23.38 370.46-22.4 370.51-20.85L370.51-20.85ZM392.41-2.6Q392.51-1.3 392.76-0.25L392.76-0.25Q392.66 0.05 391.89 0.35 391.11 0.65 390.56 0.65L390.56 0.65Q388.76 0.65 387.99 0.13 387.21-0.4 387.21-1.45L387.21-1.45Q387.21-2.45 387.41-3.45L387.41-3.45Q386.31-1.95 384.19-0.98 382.06 0 380.76 0L380.76 0Q377.41 0 375.19-1.95 372.96-3.9 372.96-8.2L372.96-8.2Q372.96-12.25 374.89-15.83 376.81-19.4 380.21-21.58 383.61-23.75 387.76-23.75L387.76-23.75Q388.56-23.75 389.86-23.33 391.16-22.9 392.49-21.88 393.81-20.85 394.71-19.25L394.71-19.25Q395.11-19.25 395.66-18.85 396.21-18.45 396.21-18.05L396.21-18.05Q396.21-17.6 396.06-17.15L396.06-17.15 392.41-2.6ZM390.16-16.6Q389.86-17.7 388.99-18.45 388.11-19.2 387.41-19.2L387.41-19.2Q385.11-19.2 383.09-17.57 381.06-15.95 379.81-13.55 378.56-11.15 378.56-9L378.56-9Q378.56-6.9 379.06-5.55 379.56-4.2 381.01-4.2L381.01-4.2Q382.26-4.2 383.89-4.95 385.51-5.7 386.79-6.98 388.06-8.25 388.46-9.65L388.46-9.65 390.16-16.6ZM416.31-15.05Q414.76-10.1 412.71-6.5 410.66-2.9 408.46-1 406.26 0.9 404.26 0.9L404.26 0.9Q399.66 0.9 399.66-8.55L399.66-8.55Q399.66-14.35 401.06-20.08 402.46-25.8 404.16-29.9L404.16-29.9Q404.66-31.2 405.46-31.98 406.26-32.75 407.71-32.75L407.71-32.75Q409.06-32.75 409.86-32.08 410.66-31.4 410.66-30.05L410.66-30.05 410.61-29.45Q410.61-29.35 410.01-27.8L410.01-27.8Q408.51-23.75 407.33-20.05 406.16-16.35 405.86-13L405.86-13Q405.71-11.3 405.71-9.65L405.71-9.65Q405.71-8 406.06-6.98 406.41-5.95 407.06-5.95L407.06-5.95Q408.51-5.95 410.58-10.13 412.66-14.3 414.56-20.13 416.46-25.95 417.36-30.35L417.36-30.35Q417.56-31.3 418.51-31.95 419.46-32.6 420.16-32.6L420.16-32.6Q421.41-32.6 421.98-31.98 422.56-31.35 422.56-30.05L422.56-30.05 422.51-29.35Q422.51-29.15 422.41-28.8 422.31-28.45 422.21-27.9L422.21-27.9Q419.81-16.5 419.31-10.9L419.31-10.9Q419.26-10.5 419.26-9.7L419.26-9.7Q419.26-8 419.73-6.98 420.21-5.95 420.96-5.95L420.96-5.95Q423.41-5.95 425.91-13.58 428.41-21.2 430.36-30.5L430.36-30.5Q430.56-31.4 431.23-31.83 431.91-32.25 432.86-32.25L432.86-32.25Q434.06-32.25 435.31-31.75 436.56-31.25 436.56-30.65L436.56-30.65 435.76-27.15Q433.91-18.95 432.03-13.15 430.16-7.35 427.13-3.23 424.11 0.9 419.81 0.9L419.81 0.9Q415.61 0.9 415.61-6.8L415.61-6.8Q415.61-10.35 416.51-15.05L416.51-15.05 416.31-15.05ZM442.71-29.7Q442.71-31.25 443.68-32.45 444.66-33.65 446.41-33.65L446.41-33.65Q448.26-33.65 449.63-32.5 451.01-31.35 451.01-29.9L451.01-29.9Q451.01-28.45 449.61-27.4 448.21-26.35 446.36-26.35L446.36-26.35Q444.56-26.35 443.63-27.28 442.71-28.2 442.71-29.7L442.71-29.7ZM447.96-20.85Q445.31-10.05 443.91-4.6L443.91-4.6Q443.71-3.8 443.71-2.85L443.71-2.85 443.76-1.45Q443.76-0.6 443.23-0.25 442.71 0.1 441.01 0.15L441.01 0.15Q439.36 0.15 438.51-0.2 437.66-0.55 437.66-1.7L437.66-1.7Q437.66-2.25 438.93-7.55 440.21-12.85 442.41-21.35L442.41-21.35 441.26-22.85Q441.11-23 441.11-23.2L441.11-23.2Q441.11-23.7 442.21-24.03 443.31-24.35 445.26-24.35L445.26-24.35Q446.96-24.35 447.43-23.38 447.91-22.4 447.96-20.85L447.96-20.85ZM475.65-22.4Q475.85-22.1 476.18-21.28 476.5-20.45 476.5-20L476.5-20Q476.5-19.75 476.45-19.7L476.45-19.7Q476.2-19.4 475.3-19.2 474.4-19 474.1-18.95L474.1-18.95Q472.55-17.95 469.18-15.78 465.8-13.6 464.25-12.6L464.25-12.6Q464.35-11.4 466.05-8.93 467.75-6.45 469.7-4.25 471.65-2.05 472.05-2.05L472.05-2.05Q472.5-2.05 473.18-1.3 473.85-0.55 473.85 0.05L473.85 0.05Q473.85 0.6 473.15 0.75L473.15 0.75Q472.7 0.85 471.48 1.1 470.25 1.35 469.35 1.35L469.35 1.35Q468.55 1.35 468.1 1.15L468.1 1.15Q466.95 0.75 464.98-1.53 463-3.8 461.2-6.63 459.4-9.45 458.85-11.5L458.85-11.5Q457.25-5.05 456.6-2.68 455.95-0.3 455.55 0.43 455.15 1.15 454.6 1.15L454.6 1.15 453.2 1.2Q449.9 1.2 449.75-1.45L449.75-1.45Q450.75-3.9 451.15-5.5L451.15-5.5Q456.1-23.85 458.2-33.15L458.2-33.15Q458.15-33.9 458.1-35.23 458.05-36.55 458.05-37.3L458.05-37.3Q458.2-37.95 459.18-38.35 460.15-38.75 460.95-38.75L460.95-38.75Q462.2-38.75 463.6-37.9 465-37.05 465.05-35.85L465.05-35.85 460.6-18.4 459.75-14.95Q460.8-16.25 463.33-18.15 465.85-20.05 468.53-21.55 471.2-23.05 472.8-23.35L472.8-23.35Q473.2-23.35 474.28-23.1 475.35-22.85 475.65-22.4L475.65-22.4ZM483.05-29.7Q483.05-31.25 484.03-32.45 485-33.65 486.75-33.65L486.75-33.65Q488.6-33.65 489.98-32.5 491.35-31.35 491.35-29.9L491.35-29.9Q491.35-28.45 489.95-27.4 488.55-26.35 486.7-26.35L486.7-26.35Q484.9-26.35 483.98-27.28 483.05-28.2 483.05-29.7L483.05-29.7ZM488.3-20.85Q485.65-10.05 484.25-4.6L484.25-4.6Q484.05-3.8 484.05-2.85L484.05-2.85 484.1-1.45Q484.1-0.6 483.58-0.25 483.05 0.1 481.35 0.15L481.35 0.15Q479.7 0.15 478.85-0.2 478-0.55 478-1.7L478-1.7Q478-2.25 479.28-7.55 480.55-12.85 482.75-21.35L482.75-21.35 481.6-22.85Q481.45-23 481.45-23.2L481.45-23.2Q481.45-23.7 482.55-24.03 483.65-24.35 485.6-24.35L485.6-24.35Q487.3-24.35 487.78-23.38 488.25-22.4 488.3-20.85L488.3-20.85Z" opacity="1" transform="matrix(1,0,0,1,0,0)" fill="#e8772e" class="undefined-text-0" data-fill-palette-color="primary" id="text-0"/></svg></g></svg></g></svg></g></svg></g></svg></g></svg></g></svg></g></svg></g><defs/></svg><rect width="395.52" height="247.2" fill="none" stroke="none" visibility="hidden"/></g></svg></g></svg>